# xmcd
# Track frame offsets:
# 150
# 12272
# 24559
# 42010
# 55000
# 72124
# 81335
# 95073
# 107645
# 118087
# 137391
# 148344
# 171745
# 181333
# 194176
# 204172
# 217152
# 226454
# 240712
# 252110
#
# Disc length: 3554 seconds
# Revision: 0
# Processed by: cddbd v1.5.1PL0 Copyright (c) Steve Scherf et al.
# Submitted via: VisiTrax 2.9.10.220 - For more info visit www.synapsa.com
#
DISCID=290de014
DTITLE=Philomena Begley - Red Is The Rose - CD1
DYEAR=2004
DGENRE=Country
TTITLE0=Pull The Covers Over Me
TTITLE1=Down River Road
TTITLE2=Dark Island
TTITLE3=Just One More Time
TTITLE4=Queen of the Silver Dollar
TTITLE5=The Shoe Goes on the Other Foot Tonight
TTITLE6=Cliffs of Doneen
TTITLE7=Here Today Gone Tomorrow
TTITLE8=Country Girl
TTITLE9=Tipperary Town
TTITLE10=Leaving On My Mind
TTITLE11=Home I'll Be
TTITLE12=Excuse Me (I Think I've Got A Heartache)
TTITLE13=Darling It's Yours
TTITLE14=Foolin' Around
TTITLE15=Get A Little Hurt Out
TTITLE16=Bright Lights and Country Music
TTITLE17=Start Living Again
TTITLE18=Bing Bang Boom
TTITLE19=How Great Thou Art
EXTD=
EXTT0=
EXTT1=
EXTT2=
EXTT3=
EXTT4=
EXTT5=
EXTT6=
EXTT7=
EXTT8=
EXTT9=
EXTT10=
EXTT11=
EXTT12=
EXTT13=
EXTT14=
EXTT15=
EXTT16=
EXTT17=
EXTT18=
EXTT19=
PLAYORDER=
